<?xml version="1.0" encoding="utf-8"?>
<!-- Generator: Adobe Illustrator 25.4.0, SVG Export Plug-In . SVG Version: 6.00 Build 0)  -->
<svg version="1.1" id="Capa_1" xmlns="http://www.w3.org/2000/svg" xmlns:xlink="http://www.w3.org/1999/xlink" x="0px" y="0px"
	 viewBox="0 0 417 145" style="enable-background:new 0 0 417 145;" xml:space="preserve">
<style type="text/css">
	.st0{fill:#DEB500;}
	.st1{fill:#FFFFFF;}
	.st2{fill:#FFD200;}
	.st3{fill:#002596;}
	.st4{fill:#8B2346;}
	.st5{fill:#CC092F;}
</style>
<g>
	<g>
		<path class="st0" d="M72.8,1.87l0.56,0.37c6.17,4.09,11.14,4.83,18.7,4.83c2.66,0,5.52-0.5,8.26-1.45l0.72-0.25l3.58,5.02
			l-0.37,0.49c-13.32,17.69-2.93,36.8,4.42,44.42l0.68,0.71l-0.69,0.69c-0.96,0.96-2.63,2.7-3.87,4l-0.42,0.44l0.03,0.61l0.01,0.21
			c0.01,0.15,0.01,0.31,0.04,0.59l0.01,0.11c0.62,11.8-2.44,21.5-9.09,28.81c-7.07,7.77-18.22,12.45-31.4,13.18l-0.51,0.03
			l-0.38,0.34c-3.36,3.05-6.76,5.59-6.8,5.62l-0.59,0.44l-0.59-0.44c-0.14-0.11-3.5-2.61-6.82-5.62l-0.38-0.34l-0.51-0.03
			c-13.18-0.72-24.33-5.4-31.4-13.18C9.34,84.17,6.28,74.48,6.9,62.68l0.01-0.11c0.03-0.26,0.04-0.41,0.04-0.57l0-0.04l0,0
			l0.01-0.18l0.03-0.61l-0.42-0.44c-1.17-1.23-2.88-3.01-3.87-4l-0.69-0.69l0.68-0.71c7.35-7.63,17.73-26.73,4.42-44.42L6.73,10.4
			l3.59-5.02l0.72,0.25c2.74,0.95,5.6,1.45,8.26,1.45c7.56,0,12.53-0.75,18.7-4.83l0.56-0.37l0.55,0.38
			c5.44,3.78,10.71,5.54,16.57,5.54c5.86,0,11.12-1.76,16.56-5.54L72.8,1.87"/>
		<path class="st1" d="M15.13,45.56c4.17-9.57,5.73-21.85-1.29-33.86c1.75,0.31,3.59,0.5,5.46,0.5c7.18,0,12.84-0.65,19.19-4.24
			c5.01,3.03,10.62,4.95,17.18,4.96c6.59-0.01,12.2-1.93,17.21-4.96c6.35,3.59,12.01,4.24,19.19,4.24c1.86,0,3.7-0.19,5.48-0.53
			c-7.03,12.04-5.48,24.33-1.31,33.89H15.13"/>
		<path class="st2" d="M96.23,45.56c-4.17-9.57-5.72-21.85,1.31-33.89c-1.77,0.34-3.61,0.53-5.48,0.53
			c-7.18,0-12.84-0.65-19.19-4.24c-5.01,3.03-10.62,4.95-17.21,4.96c-0.06,0-0.13,0-0.19,0v32.65H96.23z"/>
		<g>
			<path class="st3" d="M87.3,91.79c7.99-5.84,12.71-15.17,12.02-28.78c-0.08-0.77-0.14-0.82-0.2-1.6H87.3V91.79z"/>
			<path class="st4" d="M74.65,97.65c4.76-1.29,9.04-3.22,12.65-5.86V61.42H74.65V97.65z"/>
			<path class="st4" d="M24.06,91.79c3.61,2.64,7.89,4.57,12.65,5.86V61.42H24.06V91.79z"/>
			<path class="st3" d="M12.05,63.02c-0.69,13.61,4.03,22.94,12.02,28.78V61.42H12.25C12.18,62.2,12.13,62.24,12.05,63.02z"/>
			<g>
				<path class="st4" d="M55.71,68.14c2.31,0,4.47,0.67,6.29,1.81v-8.53H49.36v8.57C51.2,68.82,53.37,68.14,55.71,68.14z"/>
				<path class="st4" d="M55.71,91.97c-2.34,0-4.51-0.68-6.36-1.85v9.43c0.22,0.01,0.44,0.03,0.67,0.04c4.2,0.02,8.01,0.04,11.31,0
					c0.22-0.01,0.45-0.03,0.67-0.04v-9.4C60.18,91.3,58.03,91.97,55.71,91.97z"/>
			</g>
			<path class="st3" d="M62.01,61.42v8.53c3.37,2.1,5.63,5.84,5.63,10.11c0,4.27-2.25,8-5.63,10.11v9.39
				c4.47-0.23,8.72-0.85,12.65-1.91V61.42H62.01z"/>
			<path class="st3" d="M43.8,80.05c0-4.24,2.22-7.96,5.56-10.07v-8.56H36.71v36.23c3.93,1.06,8.18,1.68,12.65,1.91v-9.43
				C46.02,88.01,43.8,84.3,43.8,80.05z"/>
		</g>
		<path class="st5" d="M17.98,22.42c0.85,4.14,0.88,8.2,0.33,12.07H30.6v11.07h12.07V34.49h12.86V22.42H42.67V10.15
			c-1.44-0.64-2.84-1.37-4.19-2.19c-2.7,1.52-5.27,2.51-7.88,3.15v11.31H17.98z"/>
		<g>
			<path class="st5" d="M81.5,45.56V11.28c-1.45-0.32-2.89-0.74-4.34-1.3v35.57H81.5z"/>
			<path class="st5" d="M64.16,45.56V11.77c-1.4,0.39-2.84,0.68-4.34,0.87v32.91H64.16z"/>
			<path class="st5" d="M90.18,45.56V12.18c-1.5-0.03-2.94-0.1-4.34-0.23v33.61H90.18z"/>
			<path class="st5" d="M72.83,45.56V7.99c-1.4,0.84-2.84,1.6-4.34,2.25v35.33H72.83z"/>
		</g>
		<path d="M111.37,56.01l-1.65-1.72c-7.06-7.32-17.04-25.65-4.31-42.57l1-1.33l-4.81-6.75l-1.73,0.6c-2.59,0.9-5.29,1.37-7.8,1.37
			c-7.27,0-12.04-0.71-17.91-4.59l-1.37-0.91l-1.35,0.94c-5.19,3.6-10.2,5.28-15.75,5.28S45.13,4.65,39.93,1.05l-1.35-0.94
			l-1.37,0.91C31.34,4.9,26.58,5.61,19.3,5.61c-2.51,0-5.21-0.47-7.8-1.37l-1.73-0.6l-4.82,6.75l1,1.33
			C18.7,28.65,8.71,46.97,1.66,54.3L0,56.01l1.69,1.68c0.91,0.91,2.52,2.58,3.85,3.98c0,0.08-0.01,0.15-0.01,0.22
			c-0.01,0.15-0.01,0.27-0.04,0.5l-0.01,0.16c-0.65,12.21,2.53,22.26,9.46,29.87c7.34,8.07,18.82,12.9,32.38,13.64
			c3.36,3.06,6.77,5.6,6.93,5.71l1.45,1.08l1.45-1.08c0.15-0.11,3.55-2.65,6.9-5.71c13.57-0.75,25.04-5.57,32.38-13.64
			c6.93-7.61,10.11-17.66,9.46-29.87l-0.01-0.16c-0.03-0.24-0.03-0.36-0.04-0.5c0-0.07-0.01-0.14-0.01-0.21
			c1.33-1.4,2.94-3.07,3.85-3.98L111.37,56.01z M103.33,60.78c0.12,1.23,0.05,1.18,0.14,1.9c1.45,27.21-17.51,40.06-40.41,41.01
			c-3.5,3.27-7.36,6.15-7.36,6.15s-3.88-2.88-7.38-6.15C25.41,102.74,6.45,89.89,7.9,62.68c0.08-0.72,0.01-0.67,0.14-1.9
			c-1.31-1.39-3.49-3.66-4.63-4.8c8.22-8.53,17.8-28.03,4.5-45.72l2.81-3.73c2.66,0.92,5.62,1.5,8.59,1.5c7.63,0,12.84-0.76,19.25-5
			c5.06,3.52,10.56,5.72,17.13,5.72c6.58,0,12.07-2.2,17.13-5.72c6.41,4.24,11.62,5,19.25,5c2.97,0,5.93-0.58,8.59-1.5l2.81,3.73
			c-13.31,17.68-3.72,37.19,4.5,45.72C106.81,57.13,104.64,59.4,103.33,60.78z"/>
		<path d="M11.88,61.39c-0.03,0.42-0.06,0.61-0.1,0.84c-0.03,0.19-0.06,0.4-0.1,0.77c-0.53,10.46,2.08,18.93,7.77,25.17
			c6.52,7.15,17.09,11.23,30.57,11.79l0.51,0c2.24,0.01,4.37,0.02,6.37,0.02c1.56,0,3.05-0.01,4.45-0.03
			c13.47-0.56,24.04-4.63,30.56-11.79c5.69-6.24,8.3-14.71,7.77-25.19c-0.04-0.36-0.07-0.56-0.1-0.75c-0.03-0.22-0.07-0.42-0.1-0.84
			l-0.03-0.34H11.91L11.88,61.39z M12.41,63.05c0.04-0.34,0.07-0.53,0.09-0.72c0.03-0.17,0.05-0.32,0.07-0.55h86.21
			c0.02,0.23,0.05,0.39,0.07,0.56c0.03,0.18,0.06,0.38,0.09,0.7c0.52,10.26-2.03,18.55-7.58,24.64c-6.39,7.01-16.78,11-30.04,11.55
			c-3.16,0.04-6.8,0.02-10.79,0l-0.5,0c-13.27-0.55-23.66-4.54-30.05-11.55C14.44,81.59,11.89,73.3,12.41,63.05z"/>
		<path d="M14.8,45.41l-0.22,0.51h82.21l-0.22-0.51c-3.57-8.19-6.25-20.66,1.29-33.56l0.4-0.69l-0.79,0.15
			c-1.82,0.35-3.64,0.53-5.41,0.53c-7.34,0-12.8-0.69-19.01-4.19l-0.19-0.11l-0.18,0.11c-5.45,3.3-11.02,4.9-17.02,4.91
			c-5.99,0-11.55-1.61-17-4.91l-0.18-0.11l-0.19,0.11c-6.21,3.51-11.67,4.19-19.01,4.19c-1.71,0-3.53-0.17-5.39-0.5l-0.77-0.14
			l0.4,0.68C21.05,24.76,18.37,37.22,14.8,45.41z M55.89,13.28c5.99-0.04,11.55-1.65,16.99-4.9c6.27,3.5,11.79,4.18,19.18,4.18
			c1.56,0,3.17-0.14,4.77-0.4c-7.06,12.66-4.62,24.83-1.16,33.03H55.89V13.28z M14.54,12.18c1.64,0.26,3.24,0.38,4.76,0.38
			c7.39,0,12.91-0.69,19.18-4.18c5.35,3.2,10.82,4.81,16.69,4.9v31.92H15.69C19.15,36.99,21.59,24.82,14.54,12.18z"/>
		<polygon points="45.31,50.29 45.31,47.89 37.17,47.89 37.17,59.16 39.62,59.16 39.62,54.51 42.94,54.51 42.94,52.13 39.62,52.13 
			39.62,50.29 		"/>
		<path d="M54.84,50.14c0.89,0,1.51,0.37,1.91,1.13l0.05,0.1l2.27-1.04l-0.05-0.11c-0.8-1.64-2.23-2.51-4.14-2.51
			c-2.96,0-5.02,2.39-5.02,5.81c0,3.53,1.94,5.81,4.94,5.81c1.96,0,3.37-0.86,4.19-2.56l0.05-0.1l-2.06-1.22l-0.06,0.1
			c-0.59,0.98-1.14,1.35-2.06,1.35c-1.49,0-2.5-1.36-2.5-3.38C52.36,51.44,53.31,50.14,54.84,50.14z"/>
		<path d="M73.73,50.92c0-1.9-1.35-3.04-3.62-3.04h-5.18v11.28h5.13c2.53,0,4.05-1.38,4.05-3.68c0-1.07-0.52-1.95-1.42-2.43
			C73.35,52.57,73.73,51.8,73.73,50.92z M67.33,50.16h2.68c1.09,0,1.23,0.5,1.23,0.94c0,0.62-0.37,0.92-1.12,0.92h-2.8V50.16z
			 M70.14,56.83h-2.81v-2.61h2.81c0.99,0,1.46,0.41,1.46,1.3C71.6,56.37,71.1,56.83,70.14,56.83z"/>
		<path d="M55.64,92.17c6.71,0,12.18-5.46,12.18-12.18c0-6.71-5.46-12.18-12.18-12.18c-6.71,0-12.18,5.46-12.18,12.18
			C43.46,86.7,48.92,92.17,55.64,92.17z M55.64,91.44c-2.37,0-4.56-0.72-6.39-1.95c2.42-0.11,5.63-0.73,7.62-1.92
			c1.93-1.15,3.98-2.59,4.36-4.51c1.4-0.7,4.09-0.37,4.43,2.45C63.71,89.04,59.95,91.44,55.64,91.44z M49.99,82.61
			c0.56,0.37,1.23,0.62,2.04,0.72c1.59,0.2,3.8-1.38,3.94-3.17c2.19-1.55,3.87-0.14,4.38,1.07c1,2.4-1.11,4.13-3.83,5.75
			c-2.1,1.25-5.77,1.85-8.16,1.84c-1.26-1.04-2.3-2.35-3.02-3.83c0.09,0,0.18,0.01,0.28,0.01C47.5,85,49.1,84.14,49.99,82.61z
			 M48.17,76.83c-0.03-2.24,0.6-4.21,1.1-6.36c1.56-1.05,3.39-1.72,5.36-1.89c-1.32,1.44-1.05,3.55,0.31,4.64
			c-0.32,0.24-0.61,0.54-0.86,0.94c-1.01,1.6-1.15,4.29,1.19,6c-0.14,1.34-1.93,2.66-3.17,2.5C49.47,82.32,48.21,79.86,48.17,76.83z
			 M61.29,82.3c-0.02-0.42-0.12-0.87-0.31-1.33c-0.61-1.45-2.71-3.22-5.34-1.4c-1.94-1.46-1.82-3.69-0.96-5.04
			c1.33-2.11,4.35-1.27,7.12,0.28c2.24,1.25,4.59,3.87,5.24,6.24c-0.11,1.23-0.42,2.4-0.89,3.49C65.37,82.11,62.84,81.76,61.29,82.3
			z M62.12,74.21c-2-1.12-4.62-2.14-6.52-1.35c-1.43-0.89-1.68-3.13,0.13-4.31c6.04,0.05,10.97,4.79,11.33,10.75
			C65.98,77.23,64.01,75.26,62.12,74.21z M48.42,71.11c-0.21,0.84-0.42,1.58-0.58,2.33c-0.59,2.7-0.58,6.76,1.61,8.76
			c-0.75,1.35-2.14,2.13-3.83,2.13c-0.2,0-0.4-0.01-0.59-0.04c-0.54-1.33-0.83-2.77-0.83-4.29C44.19,76.4,45.84,73.2,48.42,71.11z"
			/>
	</g>
	<g>
		<g>
			<path class="st1" d="M162.45,39.46c0,6.85-3.76,10.95-12.41,10.95h-14.32V12.22h13.81c9.15,0,12.35,4.15,12.35,10.45
				c0,6.01-4.44,8.42-4.44,8.42v0.11C157.45,31.21,162.45,33.79,162.45,39.46z M143.13,18.91v8.87h8.31c0,0,2.98-1.12,2.98-4.6
				c0-2.36-1.29-4.27-4.6-4.27H143.13z M154.98,39.07c0-3.54-3.37-4.72-3.37-4.72h-8.48v9.27h7.13
				C153.35,43.62,154.98,41.88,154.98,39.07z"/>
			<path class="st1" d="M197.03,46.14v4.27h-6.85l-2.08-8.03c-2.25,0.45-4.49,0.67-6.8,0.67c-2.25,0-4.49-0.22-6.63-0.62l-2.08,7.97
				h-6.68v-4.27l9.38-33.92h12.35L197.03,46.14z M186.42,35.98l-2.25-8.48c-0.9-3.54-2.02-8.48-2.02-8.48h-1.52
				c0,0-1.12,4.94-2.08,8.48l-2.19,8.54c1.57,0.28,3.26,0.45,4.94,0.45C183.05,36.48,184.74,36.32,186.42,35.98z"/>
			<path class="st1" d="M221.34,35.02c0,0,3.76,6.74,7.69,10.78v4.61h-5.84c-4.77-5.22-9.66-14.6-9.66-14.6h-3.99v14.6h-7.64V12.22
				h14.43c8.31,0,12.86,3.93,12.86,11.34C229.21,32.27,221.34,35.02,221.34,35.02z M218.03,28.9c0,0,3.54-0.9,3.54-5
				c0-3.03-1.85-4.77-4.94-4.77h-7.08v9.77H218.03z"/>
			<path class="st1" d="M241.05,26.32v10c0,5.22,1.57,7.69,6.57,7.69c4.72,0,5.17-3.43,5.17-3.43h6.23v5.95c0,0-2.7,3.2-8.59,4.04
				c-0.06,5.28-3.09,8.48-3.09,8.48h-5V55.3c0,0,1.97-1.52,2.02-4.72c-7.13-1.01-10.95-5.56-10.95-14.43v-9.66
				c0-10.11,5-14.66,14.15-14.66c7.86,0,11.46,4.27,11.46,4.27v5.95h-6.23c0,0-0.45-3.43-5.17-3.43
				C242.62,18.63,241.05,21.1,241.05,26.32z"/>
			<path class="st1" d="M293.33,46.14v4.27h-6.85l-2.08-8.03c-2.25,0.45-4.49,0.67-6.8,0.67c-2.25,0-4.49-0.22-6.63-0.62l-2.08,7.97
				h-6.68v-4.27l9.38-33.92h12.35L293.33,46.14z M282.71,35.98l-2.25-8.48c-0.9-3.54-2.02-8.48-2.02-8.48h-1.52
				c0,0-1.12,4.94-2.08,8.48l-2.19,8.54c1.57,0.28,3.26,0.45,4.94,0.45C279.34,36.48,281.03,36.32,282.71,35.98z"/>
		</g>
		<g>
			<path class="st1" d="M135.72,77.37c0-9.63,4.38-14.5,12.97-14.5c8.59,0,12.97,4.87,12.97,14.5v9.3c0,9.63-4.38,14.5-12.97,14.5
				c-8.59,0-12.97-4.87-12.97-14.5V77.37z M148.69,98.82c6.73,0,10.34-3.61,10.34-11.93v-9.74c0-8.32-3.61-11.93-10.34-11.93
				c-6.73,0-10.34,3.61-10.34,11.93v9.74C138.34,95.21,141.95,98.82,148.69,98.82z"/>
			<path class="st1" d="M172.33,73.05v-5.42c0-6.62,4.65-7.5,4.65-7.5H179v2.19h-0.22c-1.91,0-3.94,1.31-3.94,5.53v5.2h12.8v-5.42
				c0-6.62,4.65-7.5,4.65-7.5h2.03v2.19h-0.22c-1.92,0-3.94,1.31-3.94,5.53v5.2h14.61v27.58h-2.52V75.34h-12.09v25.28h-2.52V75.34
				h-12.8v25.28h-2.52V75.34h-5.36v-2.3H172.33z M203.57,61.33c1.26,0,1.81,0.71,1.81,1.75v0.22c0,0.99-0.55,1.7-1.81,1.7
				c-1.31,0-1.86-0.71-1.86-1.7v-0.22C201.71,62.05,202.26,61.33,203.57,61.33z"/>
			<path class="st1" d="M213.59,86.02c0-9.8,4.54-13.24,11.27-13.24c5.36,0,7.93,2.24,7.93,2.24v2.03h-1.97c0,0-1.81-1.92-5.97-1.92
				c-5.58,0-8.7,2.96-8.7,11.05v1.37c0,8.04,3.12,11.05,8.7,11.05c4.16,0,5.97-1.92,5.97-1.92h1.97v2.03c0,0-2.57,2.19-7.93,2.19
				c-6.73,0-11.27-3.39-11.27-13.24V86.02z"/>
			<path class="st1" d="M241.94,61.33c1.26,0,1.81,0.71,1.81,1.75v0.22c0,0.99-0.55,1.7-1.81,1.7c-1.31,0-1.86-0.71-1.86-1.7v-0.22
				C240.08,62.05,240.62,61.33,241.94,61.33z M240.62,73.05h2.52v27.58h-2.52V73.05z"/>
			<path class="st1" d="M253.59,74.69c0,0.05,3.17-2.03,8.65-2.03c6.29,0,9.25,2.96,9.25,8.54v19.43h-2.03l-0.33-3.12h-0.11
				c0,0-3.28,3.56-8.97,3.56c-5.91,0-8.43-3.17-8.43-7.72c0-4.71,2.24-7.77,9.47-7.77h7.88v-4.27c0-4.21-2.35-6.29-6.89-6.29
				c-4.49,0-6.51,1.75-6.51,1.75h-1.97V74.69z M268.97,95.26v-7.55h-7.99c-5.36,0-6.84,2.35-6.84,5.58c0,3.56,1.81,5.47,6.51,5.47
				C265.91,98.77,268.97,95.26,268.97,95.26z"/>
			<path class="st1" d="M284.73,100.63c0,0-2.96-0.66-2.96-4.65V60.13h2.52v35.63c0,1.81,0.93,2.68,2.19,2.68h0.55v2.19H284.73z"/>
			<path class="st1" d="M305.25,96.9h1.97c0,0,2.13,1.81,8.26,1.81c6.29,0,9.25-3.06,9.25-7.77c0-4.65-2.85-6.35-7.11-7.72
				l-3.89-1.26c-6.13-2.02-7.93-5.25-7.93-9.58c0-5.96,4.32-9.41,11.27-9.41c6.24,0,9.41,2.19,9.41,2.19v2.13h-1.97
				c0,0-2.24-1.97-7.44-1.97c-5.64,0-8.65,2.68-8.65,7c0,3.78,1.92,5.8,6.18,7.17l3.89,1.26c6.24,2.08,8.76,4.71,8.87,10.01
				c0.11,6.62-4.65,10.29-11.82,10.29c-6.89,0-10.29-2.08-10.29-2.08V96.9z"/>
			<path class="st1" d="M331.36,73.05h5.36v-7.06h2.52v7.06h5.58v2.3h-5.58v18.77c0,2.9,1.37,4.32,3.45,4.32h0.88v2.19h-2.52
				c0,0-4.32-0.6-4.32-6.35V75.34h-5.36V73.05z"/>
			<path class="st1" d="M349.8,86.02c0-9.52,4.71-13.41,11.27-13.41c6.57,0,11.27,3.89,11.27,13.41v1.64
				c0,9.52-4.71,13.41-11.27,13.41c-6.57,0-11.27-3.89-11.27-13.41V86.02z M361.07,98.77c4.98,0,8.7-2.68,8.7-11.27v-1.31
				c0-8.59-3.72-11.22-8.7-11.22s-8.7,2.63-8.7,11.22v1.31C352.37,96.08,356.09,98.77,361.07,98.77z"/>
			<path class="st1" d="M382.91,73.05l0.38,4.05h0.11c0,0,2.19-4.05,7.72-4.05h0.93v2.35h-1.48c-4.87,0-7.22,4.21-7.22,4.21v21.01
				h-2.52V73.05H382.91z"/>
			<path class="st1" d="M396.15,86.12c0-9.19,4.21-13.52,10.62-13.52c6.18,0,10.23,3.23,10.23,11.33c0,1.7-0.27,3.78-0.27,3.78h-18
				v0.11c0,7.72,3.12,10.94,8.92,10.94c4.38,0,6.46-1.7,6.46-1.7h1.97v2.03c0,0-2.85,1.97-8.54,1.97c-6.89,0-11.38-4-11.38-13.41
				V86.12z M398.72,85.58h15.6c0,0,0.11-0.82,0.11-1.92c0-5.96-2.41-8.76-7.66-8.76c-4.54,0-8.04,2.68-8.04,10.56V85.58z"/>
		</g>
		<g>
			<path class="st1" d="M135.72,133.43h3.08c0,0,0.9,1.48,4.71,1.48c3.74,0,5.1-1.64,5.1-3.86c0-2.18-1.25-3.31-3.78-4.17
				l-2.45-0.86c-4.95-1.68-6.35-4.05-6.35-7.44c0-4.64,3.31-7.21,8.77-7.21c4.44,0,7.21,1.6,7.21,1.6v3.43h-3.16
				c0,0-0.86-1.52-4.21-1.52c-3.2,0-4.6,1.44-4.6,3.58c0,1.99,1.05,2.96,3.74,3.86l2.45,0.86c4.87,1.71,6.27,3.9,6.35,7.56
				c0.08,4.87-3.08,7.68-9.08,7.68c-4.83,0-7.79-1.6-7.79-1.6V133.43z"/>
			<path class="st1" d="M160.5,136.59h-0.12c0,0,0.08,2.38,0.08,3.9v4.4h-3.9v-26.73h3.27l0.51,2.14h0.12c0,0,1.95-2.34,5.92-2.34
				c5.03,0,7.01,3.43,7.01,9.47v1.48c0,5.73-2.38,9.43-7.48,9.43C162.6,138.34,160.77,136.86,160.5,136.59z M164.86,134.95
				c3.47,0,4.56-2.3,4.56-6.47v-0.62c0-4.25-0.74-6.51-4.29-6.51c-2.96,0-4.68,1.87-4.68,1.87v10.29
				C160.46,133.51,161.98,134.95,164.86,134.95z"/>
			<path class="st1" d="M176.36,127.63c0-6.16,2.92-9.78,8.65-9.78c5.73,0,8.69,3.62,8.69,9.78v1.09c0,6.12-2.96,9.74-8.69,9.74
				c-5.73,0-8.65-3.62-8.65-9.74V127.63z M185.01,135.07c3.27,0,4.71-1.91,4.71-6.59v-0.66c0-4.72-1.44-6.59-4.71-6.59
				c-3.27,0-4.68,1.87-4.68,6.59v0.66C180.34,133.16,181.74,135.07,185.01,135.07z"/>
			<path class="st1" d="M194.95,118.16h3.35v-4.95h3.9v4.95h3.35v3.39h-3.35v10.83c0,1.68,0.82,2.45,2.1,2.45h0.74v3.31h-3.35
				c0,0-3.39-0.82-3.39-5.53v-11.07h-3.35V118.16z"/>
			<path class="st1" d="M210.93,109.51c1.6,0,2.42,0.9,2.42,2.26v0.31c0,1.36-0.82,2.22-2.42,2.22c-1.56,0-2.38-0.86-2.38-2.22
				v-0.31C208.55,110.41,209.37,109.51,210.93,109.51z M208.98,118.16h3.9v19.99h-3.9V118.16z"/>
			<path class="st1" d="M219.03,118.16v-2.53c0-5.3,3.51-6.31,3.51-6.31h3.04v3.31h-0.16c-1.48,0-2.49,0.7-2.49,3v2.53h3.35v3.39
				h-3.35v16.6h-3.9v-16.6h-3.35v-3.39H219.03z"/>
			<path class="st1" d="M231.66,141.58c1.52,0,2.3-0.51,2.84-2.3l0.58-2.03h-1.83l-5.73-16.76v-2.34h3.39l3.62,10.95
				c0.66,1.99,1.29,4.68,1.29,4.68h0.66c0,0,0.62-2.69,1.29-4.68l3.62-10.95h3.23v2.38l-5.73,16.72l-0.86,2.77
				c-1.29,4.37-3.78,4.87-3.78,4.87h-3.62v-3.31H231.66z"/>
			<path class="st1" d="M254.73,121.71c0-7.01,3.27-10.4,9.51-10.4c6.2,0,8.03,3.74,8.03,3.74v3.08h-3.39c0,0-0.19-3.2-4.6-3.2
				c-3.93,0-5.49,2.14-5.49,6.55v6.86c0,4.4,1.56,6.55,5.49,6.55c4.4,0,4.6-3.2,4.6-3.2h3.39v3.08c0,0-1.83,3.74-8.03,3.74
				c-6.23,0-9.51-3.39-9.51-10.4V121.71z"/>
			<path class="st1" d="M276.4,119.45c0,0.04,2.42-1.52,6.86-1.52c5.14,0,7.4,2.22,7.4,6.39v13.83h-3.23l-0.51-2.1h-0.12
				c0,0-2.03,2.38-5.85,2.38c-4.36,0-6.04-2.38-6.04-6c0-3.74,2.1-5.84,7.05-5.84h4.83v-2.14c0-2.1-1.13-3.08-3.86-3.08
				c-2.77,0-3.43,1.25-3.43,1.25h-3.12V119.45z M286.8,133.16v-3.66h-4.64c-2.45,0-3.43,1.17-3.43,2.77c0,2.03,0.86,2.92,3.43,2.92
				C285.36,135.19,286.8,133.16,286.8,133.16z"/>
			<path class="st1" d="M295.8,118.16h3.23l0.51,2.22h0.12c0,0,2.1-2.53,6.2-2.53c2.34,0,4.13,1.01,4.91,2.81h0.12
				c0,0,2.42-2.81,6.7-2.81c3.55,0,5.53,2.03,5.53,6v14.3h-3.9v-13.83c0-2.03-0.86-3.12-3.23-3.12c-2.69,0-4.56,1.99-4.56,1.99
				v14.96h-3.9v-13.83c0-2.03-0.86-3.12-3.27-3.12c-2.65,0-4.56,1.99-4.56,1.99v14.96h-3.9V118.16z"/>
			<path class="st1" d="M332.24,136.59h-0.12c0,0,0.08,2.38,0.08,3.9v4.4h-3.9v-26.73h3.27l0.51,2.14h0.12c0,0,1.95-2.34,5.92-2.34
				c5.03,0,7.01,3.43,7.01,9.47v1.48c0,5.73-2.38,9.43-7.48,9.43C334.35,138.34,332.51,136.86,332.24,136.59z M336.61,134.95
				c3.47,0,4.56-2.3,4.56-6.47v-0.62c0-4.25-0.74-6.51-4.29-6.51c-2.96,0-4.68,1.87-4.68,1.87v10.29
				C332.2,133.51,333.72,134.95,336.61,134.95z"/>
			<path class="st1" d="M356.79,111.65h4.29l8.38,14.3c0.7,1.21,2.18,4.29,2.18,4.29h0.08c0,0-0.19-3.27-0.19-6.08v-12.51h3.93v26.5
				h-3.93v-1.75l-8.42-14.34c-1.13-2.03-2.42-4.4-2.42-4.4h-0.12c0,0,0.16,2.3,0.16,4.91v15.59h-3.94V111.65z"/>
			<path class="st1" d="M379.82,127.63c0-6.16,2.92-9.78,8.65-9.78s8.69,3.62,8.69,9.78v1.09c0,6.12-2.96,9.74-8.69,9.74
				s-8.65-3.62-8.65-9.74V127.63z M388.47,135.07c3.27,0,4.71-1.91,4.71-6.59v-0.66c0-4.72-1.44-6.59-4.71-6.59
				s-4.68,1.87-4.68,6.59v0.66C383.8,133.16,385.2,135.07,388.47,135.07z"/>
			<path class="st1" d="M405,118.16v13.83c0,2.03,1.05,3.12,3.51,3.12c2.81,0,4.6-1.99,4.6-1.99v-14.96h3.9v19.99h-3.23l-0.55-2.18
				h-0.08c0,0-2.03,2.49-6.23,2.49c-3.62,0-5.81-1.95-5.81-5.96v-14.34H405z"/>
		</g>
	</g>
</g>
</svg>
